<?xml version="1.0" standalone="no"?>
<!DOCTYPE svg PUBLIC "-//W3C//DTD SVG 20010904//EN"
 "http://www.w3.org/TR/2001/REC-SVG-20010904/DTD/svg10.dtd">
<svg version="1.0" xmlns="http://www.w3.org/2000/svg"
 width="512.000000pt" height="512.000000pt" viewBox="0 0 512.000000 512.000000"
 preserveAspectRatio="xMidYMid meet">

<g transform="translate(0.000000,512.000000) scale(0.100000,-0.100000)"
fill="#000000" stroke="none">
<path d="M1643 4959 c-73 -9 -135 -42 -187 -100 -82 -91 -76 11 -76 -1386 0
-988 3 -1243 13 -1243 26 0 117 -50 156 -85 23 -21 62 -72 89 -114 l47 -76 3
1193 2 1192 1123 0 1122 0 0 -1162 0 -1163 154 0 153 0 0 1347 c0 1542 8 1409
-91 1509 -99 99 6 92 -1310 93 -630 1 -1169 -2 -1198 -5z m1754 -251 c30 -28
30 -74 1 -105 l-21 -23 -566 0 -565 0 -23 22 c-30 28 -30 74 -1 105 l21 23
566 0 565 0 23 -22z"/>
<path d="M2690 4194 c-209 -45 -380 -210 -435 -419 -9 -38 -15 -104 -15 -182
l0 -123 75 0 75 0 0 94 c0 51 5 118 10 147 24 129 107 237 228 296 73 37 80
38 182 38 102 0 109 -1 182 -38 121 -59 204 -167 228 -296 5 -29 10 -96 10
-147 l0 -94 76 0 76 0 -4 148 c-4 123 -8 157 -28 207 -75 193 -231 329 -425
370 -86 18 -150 18 -235 -1z"/>
<path d="M2182 3293 c-18 -9 -45 -32 -60 -51 l-27 -35 -2 -496 -3 -496 23 -40
c14 -26 37 -48 67 -62 l44 -23 586 0 586 0 44 22 c30 15 53 37 67 63 l23 40
-3 496 -2 496 -27 35 c-54 70 -29 68 -690 68 -529 0 -597 -2 -626 -17z m700
-143 c55 -16 119 -69 150 -125 22 -40 28 -63 28 -116 0 -85 -18 -128 -86 -199
-58 -61 -84 -111 -84 -162 0 -90 -98 -125 -146 -53 -14 22 -15 35 -6 88 14 87
45 147 113 223 71 78 78 116 30 165 -59 58 -154 28 -167 -52 -9 -57 -38 -89
-80 -89 -51 0 -74 28 -74 93 1 154 165 270 322 227z m-21 -779 c16 -16 29 -39
29 -51 0 -28 -52 -80 -80 -80 -28 0 -80 52 -80 80 0 28 52 80 80 80 12 0 35
-13 51 -29z"/>
<path d="M1212 2077 c-74 -23 -100 -63 -553 -822 -243 -407 -450 -758 -460
-780 -36 -77 -19 -169 43 -239 72 -83 6 -78 1048 -78 1042 0 976 -5 1048 78
66 74 79 163 38 249 -13 28 -217 374 -453 770 -286 478 -445 735 -474 765 -63
65 -149 86 -237 57z m169 -401 c77 -52 79 -72 50 -528 -21 -328 -25 -343 -89
-374 -50 -23 -100 -13 -139 30 -37 40 -36 36 -58 396 -21 344 -21 379 -1 417
41 81 161 110 237 59z m-9 -1094 c60 -59 40 -156 -38 -188 -74 -31 -159 25
-159 106 0 105 123 156 197 82z"/>
<path d="M2655 1847 c-3 -7 -4 -123 -3 -257 l3 -245 1143 -3 1142 -2 0 260 0
260 -1140 0 c-912 0 -1142 -3 -1145 -13z m377 -106 l33 -29 33 29 c40 35 75
37 107 4 33 -32 32 -75 -1 -115 l-27 -31 27 -28 c37 -38 36 -92 -1 -121 -34
-26 -76 -21 -113 15 l-26 25 -24 -25 c-36 -36 -79 -42 -113 -15 -37 29 -38 83
-1 121 l27 28 -27 31 c-35 43 -35 91 0 119 36 29 68 26 106 -8z m497 -6 l25
-24 33 30 c41 35 76 37 108 4 32 -31 32 -69 -1 -112 l-25 -33 25 -31 c33 -39
34 -82 1 -114 -32 -33 -67 -31 -107 4 l-33 29 -28 -24 c-15 -13 -39 -27 -53
-30 -46 -12 -103 49 -87 93 3 10 17 30 31 46 l26 27 -29 30 c-38 40 -38 85 0
118 34 29 77 24 114 -13z m474 5 c33 -29 35 -29 51 -11 30 33 72 45 105 32 27
-12 51 -47 51 -76 0 -8 -14 -30 -31 -50 l-31 -35 25 -24 c48 -45 47 -105 -3
-131 -41 -21 -55 -19 -95 16 l-35 31 -35 -31 c-20 -17 -43 -31 -51 -31 -29 0
-74 31 -80 55 -7 30 10 76 37 101 18 16 18 18 -11 51 -43 48 -37 103 13 123
37 15 55 11 90 -20z m490 1 l33 -30 25 24 c37 37 80 42 114 13 38 -33 38 -78
0 -118 l-28 -29 32 -36 c17 -20 31 -45 31 -56 0 -24 -52 -79 -75 -79 -21 0
-68 25 -84 44 -12 14 -17 13 -49 -15 -28 -25 -41 -30 -66 -25 -66 13 -86 81
-40 135 l26 31 -26 31 c-33 39 -34 82 -1 114 32 33 67 31 108 -4z"/>
<path d="M3937 1183 c-4 -3 -7 -26 -7 -50 l0 -43 -860 0 c-527 0 -860 -4 -860
-9 0 -5 66 -119 146 -253 167 -276 183 -308 194 -387 12 -87 -12 -188 -67
-281 -2 -3 337 -4 752 -3 871 1 820 -4 916 92 89 90 89 87 89 548 l0 393 -148
0 c-82 0 -152 -3 -155 -7z m-1066 -419 c8 -2 31 -20 50 -40 32 -33 34 -39 34
-104 0 -59 -3 -72 -25 -95 -35 -38 -73 -55 -120 -55 -138 0 -204 160 -107 258
46 46 93 56 168 36z"/>
</g>
</svg>
